<?xml version="1.0" encoding="utf-8"?>
<!-- Generator: Adobe Illustrator 20.1.0, SVG Export Plug-In . SVG Version: 6.00 Build 0)  -->
<svg version="1.1" xmlns="http://www.w3.org/2000/svg" xmlns:xlink="http://www.w3.org/1999/xlink" x="0px" y="0px"
	 viewBox="0 0 1000 1000" style="enable-background:new 0 0 1000 1000;" xml:space="preserve">
<g id="Layer_2">
	<rect x="-28.1" y="-29.9" style="fill:#FEEECB;" width="1056.2" height="1059.8"/>
	<rect x="-31.7" y="735.2" style="fill:#D2965F;" width="1063.4" height="333"/>
	<rect x="-31.7" y="687.2" style="fill:#FFFEFB;" width="1064.3" height="48"/>
</g>
<g id="Layer_4">
	<polygon style="fill:#54251C;" points="741.3,581.1 741.3,796.8 758.1,796.8 758.1,662.3 911.8,662.3 911.8,796.8 928.6,796.8 
		928.6,581.1 	"/>
	<path style="fill:#C4393F;" d="M622.5,704.7h-527c-12.1,0-22-9.9-22-22v-93.1c0-12.1,9.9-22,22-22h527c12.1,0,22,9.9,22,22v93.1
		C644.5,694.8,634.6,704.7,622.5,704.7z"/>
	<path style="fill:#DD4F54;" d="M333.5,704.7h-238c-12.1,0-22-9.9-22-22v-142c0-12.1,9.9-22,22-22h238c12.1,0,22,9.9,22,22v142
		C355.5,694.8,345.6,704.7,333.5,704.7z"/>
	<path style="fill:#DD4F54;" d="M622.5,704.7h-238c-12.1,0-22-9.9-22-22v-142c0-12.1,9.9-22,22-22h238c12.1,0,22,9.9,22,22v142
		C644.5,694.8,634.6,704.7,622.5,704.7z"/>
	<path style="fill:#54251C;" d="M657.8,778.8H53.3c-12.1,0-22-9.9-22-22v-30.1c0-12.1,9.9-22,22-22h604.6c12.1,0,22,9.9,22,22v30.1
		C679.8,768.9,669.9,778.8,657.8,778.8z"/>
	<path style="fill:#54251C;" d="M141.8,704.7h-68c-12.1,0-22-9.9-22-22v-28.9c0-12.1,9.9-22,22-22h68c12.1,0,22,9.9,22,22v28.9
		C163.8,694.8,153.9,704.7,141.8,704.7z"/>
	<path style="fill:#54251C;" d="M644.3,704.7h-68c-12.1,0-22-9.9-22-22v-28.9c0-12.1,9.9-22,22-22h68c12.1,0,22,9.9,22,22v28.9
		C666.3,694.8,656.4,704.7,644.3,704.7z"/>
	<rect x="90.8" y="779.1" style="fill:#F5EECC;" width="27.7" height="35.4"/>
	<rect x="592.6" y="779.1" style="fill:#F5EECC;" width="27.7" height="35.4"/>
	
		<rect x="315" y="588.7" transform="matrix(0.7071 0.7071 -0.7071 0.7071 556.0211 -70.0254)" style="fill:#8FD2F5;" width="95" height="95"/>
	<rect x="195.3" y="634.2" style="fill:#54B99F;" width="154.7" height="70.5"/>
	<rect x="395.1" y="634.2" style="fill:#F6AC93;" width="154.7" height="70.5"/>
	<g>
		<rect x="679.8" y="221.1" style="fill:#FFFEFB;" width="369.6" height="291.3"/>
		<path style="fill:none;" d="M940.3,494.2v-34.1c-19.4-5.7-37.9-9.6-54-10.1c-15.9-0.4-34.6,1.1-54,3.8v40.3H940.3z"/>
		<path style="fill:none;" d="M806.9,494.2v-36.3c-43.5,7.7-86.6,19.2-108,25.2v11.1H806.9z"/>
		<path style="fill:#8FD2F5;" d="M1049.4,494.2v-255h-83.8v229.1c18,8.1,36.2,17.6,52.7,25.9H1049.4z"/>
		<path style="fill:#8FD2F5;" d="M806.9,239.2h-108v243.9c21.4-6,64.5-17.5,108-25.2V239.2z"/>
		<path style="fill:#8FD2F5;" d="M886.3,450c16.1,0.4,34.6,4.4,54,10.1V239.2h-108v214.6C851.7,451.2,870.3,449.6,886.3,450z"/>
		<path style="fill:#54B99F;" d="M1033.7,494.2c-21.4-8.2-44.8-17.8-68-25.9v25.9H1033.7z"/>
		<path style="fill:#54B99F;" d="M806.9,494.2v-36.3c-43.5,7.7-86.6,19.2-108,25.2v11.1H806.9z"/>
		<path style="fill:#54B99F;" d="M940.3,494.2v-34.1c-19.4-5.7-37.9-9.6-54-10.1c-15.9-0.4-34.6,1.1-54,3.8v40.3H940.3z"/>
		<g>
			<rect x="869.5" y="426.5" style="fill:#54251C;" width="5.1" height="33.9"/>
			<path style="fill:#54824D;" d="M886.3,433.9c0-7.8-6.4-34.7-14.2-34.7c-7.8,0-14.2,26.9-14.2,34.7c0,7.8,6.4,14.2,14.2,14.2
				C879.9,448.1,886.3,441.7,886.3,433.9z"/>
		</g>
		<g>
			<rect x="911.8" y="443.4" style="fill:#54251C;" width="5.1" height="33.9"/>
			<path style="fill:#54824D;" d="M928.6,450.7c0-7.8-6.4-34.7-14.2-34.7s-14.2,26.9-14.2,34.7s6.4,14.2,14.2,14.2
				S928.6,458.6,928.6,450.7z"/>
		</g>
		<g>
			<rect x="764.5" y="446.7" style="fill:#54251C;" width="5.1" height="33.9"/>
			<path style="fill:#54824D;" d="M781.3,454.1c0-7.8-6.4-34.7-14.2-34.7s-14.2,26.9-14.2,34.7c0,7.8,6.4,14.2,14.2,14.2
				S781.3,461.9,781.3,454.1z"/>
		</g>
	</g>
	<g>
		<rect x="128.9" y="82.2" style="fill:#54251C;" width="139.1" height="139.1"/>
		<rect x="140.7" y="93.9" style="fill:#FFFEFB;" width="115.6" height="115.6"/>
		<rect x="167.1" y="120.4" style="fill:#DD4F54;" width="62.7" height="62.7"/>
	</g>
	<g>
		<rect x="312.8" y="82.2" style="fill:#54251C;" width="139.1" height="139.1"/>
		<rect x="324.5" y="93.9" style="fill:#FFFEFB;" width="115.6" height="115.6"/>
		<rect x="351" y="120.4" style="fill:#54B99F;" width="62.7" height="62.7"/>
	</g>
	<rect x="496.6" y="-72.2" style="fill:#54251C;" width="6.8" height="263.5"/>
	<circle style="fill:#FFFEFB;" cx="500" cy="188.6" r="106.5"/>
	<g>
		<rect x="128.9" y="372" style="fill:#54251C;" width="322.9" height="29.4"/>
		<rect x="163.8" y="262.1" style="fill:#DD4F54;" width="23.1" height="109.9"/>
		
			<rect x="282" y="293.6" transform="matrix(-1.836970e-16 1 -1 -1.836970e-16 653.9528 58.1216)" style="fill:#F6AC93;" width="31.9" height="125"/>
		
			<rect x="283.8" y="284.7" transform="matrix(-1.836970e-16 1 -1 -1.836970e-16 623.8834 49.2744)" style="fill:#54B99F;" width="7" height="103.7"/>
		<rect x="189.3" y="262.1" style="fill:#8FD2F5;" width="23.1" height="109.9"/>
		<rect x="245.3" y="340.1" style="fill:#FFFEFB;" width="10.9" height="31.9"/>
		<circle style="fill:#FFFEFB;" cx="200.9" cy="360.6" r="5"/>
		<rect x="166.4" y="270.1" style="fill:#FFFEFB;" width="18" height="5.2"/>
		<rect x="166.4" y="277.7" style="fill:#FFFEFB;" width="18" height="5.2"/>
	</g>
	<rect x="758.1" y="599.5" style="fill:#F6AC93;" width="153.7" height="48.6"/>
	<circle style="fill:#DD4F54;" cx="835" cy="623.8" r="8.2"/>
	<g>
		<path style="fill:#DD4F54;" d="M228.8,809.8h-151c-12.1,0-22,9.9-22,22v15c0,12.1,9.9,22,22,22h151c12.1,0,22-9.9,22-22v-15
			C250.8,819.7,240.9,809.8,228.8,809.8z"/>
		<rect x="55.8" y="839.3" style="fill:#54251C;" width="195" height="60"/>
		<rect x="74" y="899.3" style="fill:#F5EECC;" width="16" height="29"/>
		<rect x="216.5" y="899.3" style="fill:#F5EECC;" width="16" height="29"/>
	</g>
	<path style="fill:#DD4F54;" d="M891.2,530.1c1.5-0.6,2.5-2,2.5-3.7c0-2.2-1.8-4-4-4h-21.4c-2.2,0-4,1.8-4,4c0,1.7,1,3.1,2.5,3.7
		c-7.3,5.5-12.1,15.4-12.1,24.4c0,9.6,5.5,20.8,13.5,26.5h21.6c8-5.7,13.5-17,13.5-26.5C903.3,545.5,898.4,535.7,891.2,530.1z"/>
	<rect x="764.5" y="561.7" style="fill:#8FD2F5;" width="78.6" height="19.3"/>
	<rect x="769.7" y="565.6" style="fill:#FFFEFB;" width="5.9" height="12.3"/>
	<g>
		<polygon style="fill:#F6AC93;" points="357.2,962.7 882.1,962.7 877.8,946.3 361.6,946.3 		"/>
		<polygon style="fill:#F6AC93;" points="351.3,985.1 888,985.1 883.7,968.7 355.7,968.7 		"/>
		<polygon style="fill:#F6AC93;" points="363.1,940.3 876.2,940.3 871.9,923.8 367.5,923.8 		"/>
		<polygon style="fill:#F6AC93;" points="345.4,1007.6 893.9,1007.6 889.6,991.1 349.8,991.1 		"/>
		<polygon style="fill:#F6AC93;" points="369,917.8 870.3,917.8 866,901.4 373.4,901.4 		"/>
		<polygon style="fill:#F6AC93;" points="856.9,867 382.4,867 380.8,873 858.5,873 		"/>
		<polygon style="fill:#F6AC93;" points="379.3,879 374.9,895.4 864.4,895.4 860.1,879 		"/>
		<polygon style="fill:#DD4F54;" points="858.5,873 380.8,873 379.3,879 860.1,879 		"/>
		<polygon style="fill:#DD4F54;" points="373.4,901.4 866,901.4 864.4,895.4 374.9,895.4 		"/>
		<polygon style="fill:#DD4F54;" points="367.5,923.8 871.9,923.8 870.3,917.8 369,917.8 		"/>
		<polygon style="fill:#DD4F54;" points="361.6,946.3 877.8,946.3 876.2,940.3 363.1,940.3 		"/>
		<polygon style="fill:#DD4F54;" points="355.7,968.7 883.7,968.7 882.1,962.7 357.2,962.7 		"/>
		<polygon style="fill:#DD4F54;" points="349.8,991.1 889.6,991.1 888,985.1 351.3,985.1 		"/>
	</g>
</g>
</svg>
