<?xml version="1.0" encoding="iso-8859-1"?>
<!-- Generator: Adobe Illustrator 21.0.0, SVG Export Plug-In . SVG Version: 6.00 Build 0)  -->
<svg version="1.1" xmlns="http://www.w3.org/2000/svg" xmlns:xlink="http://www.w3.org/1999/xlink" x="0px" y="0px" width="2800px"
	 height="2800px" viewBox="0 0 2800 2800" enable-background="new 0 0 2800 2800" xml:space="preserve">
<g id="BACKGROUND">
	<g>
		<g>
			<linearGradient id="SVGID_1_" gradientUnits="userSpaceOnUse" x1="1400" y1="-9.094947e-13" x2="1400" y2="2800">
				<stop  offset="0" style="stop-color:#D2DFFE"/>
				<stop  offset="0.9892" style="stop-color:#8CB0F5"/>
			</linearGradient>
			<rect fill="url(#SVGID_1_)" width="2800" height="2800"/>
		</g>
		<g opacity="0.5">
			<path fill="#313C51" d="M1528.4,1391.8c-2.8,0-5.6,0.3-8.2,0.8c0.1-1.6,0.2-3.3,0.2-5c0-29.2-21.9-53-48.9-53
				c-7.3,0-14.2,1.7-20.4,4.8c-11.9-39.6-46.3-68.3-86.8-68.3c-37.8,0-70.2,24.9-84.1,60.3c-11.9,1-24.8,4-37.9,9
				c-0.6-1.4-1.2-2.9-1.9-4.3V0h-179.7v679.8l-35.8-60l-18.9,11.3l54.7,91.7v648c-3.3-0.3-6.7-0.5-10.1-0.5
				c-45.2,0-81.9,30.3-81.9,67.6s36.7,67.6,81.9,67.6c3.4,0,6.8-0.2,10.1-0.5v871.8h179.7v-780.8l40.6-81.4l3.6-6.8
				c17.5,1.7,36.1,2.6,55.5,2.6c70.7,0,131.9-12.2,161.5-29.9c7.5,6,16.8,9.6,26.9,9.6c25,0,45.3-21.9,45.3-49
				S1553.4,1391.8,1528.4,1391.8z M1240.4,1546.5v-45.3c6.1,1.2,12.4,2.3,18.9,3.3l0.4,3.1L1240.4,1546.5z"/>
			<path fill="#313C51" d="M736.1,1370.2c-3.9,0-7.7,0.2-11.5,0.7c0-0.2,0-0.5,0-0.7c0-19.6-7.2-37.6-19.3-52V702.1l42.4-71.1
				l-18.9-11.3l-23.5,39.4V0H567v1308.9c-9.9,8.8-17.7,19.6-22.5,31.6c-13.1-5-26-8-37.9-9c-13.9-35.4-46.3-60.3-84.1-60.3
				c-40.5,0-74.9,28.6-86.8,68.3c-6.2-3.1-13.1-4.8-20.4-4.8c-27,0-48.9,23.7-48.9,53c0,1.7,0.1,3.3,0.2,5c-2.7-0.5-5.4-0.8-8.2-0.8
				c-25,0-45.3,21.9-45.3,49s20.3,49,45.3,49c10.1,0,19.3-3.6,26.9-9.6c29.5,17.7,90.7,29.9,161.5,29.9c24.7,0,48.2-1.5,69.6-4.2
				l4.4,8.4l46.4,93.1v769.1h138.3v-876.2c9.5,3.2,19.9,5,30.8,5c45.2,0,81.9-30.3,81.9-67.6S781.3,1370.2,736.1,1370.2z
				 M541.8,1507.6l0.8-5.7c8.6-1.6,16.8-3.5,24.4-5.5v61.7L541.8,1507.6z"/>
			<path fill="#313C51" d="M494.9,241.2c-4.3,0-8.4,0.4-12.5,1.2c0.2-2.5,0.3-5,0.3-7.5c0-44.3-33.2-80.3-74.1-80.3
				c-11,0-21.5,2.6-30.9,7.3c-18.1-60.1-70.2-103.5-131.7-103.5c-55.4,0-103.2,35.2-125.3,86.1c-2.2,0.3-4.4,0.6-6.7,1.1V0H0v96.7
				v136.1V320v110.4v1946.2h114.1V514l40.7-60.5l45.8-34.7c15.5,1.1,31.5,1.7,48,1.7c90.2,0,168.4-17.8,207.6-43.8
				c11,8.2,24.4,13,38.8,13c37.9,0,68.6-33.3,68.6-74.3C563.5,274.5,532.8,241.2,494.9,241.2z M114.1,474.6v-68.8
				c8.4,2,17.1,3.9,26.3,5.6l-4.2,30.5L114.1,474.6z M161.2,421.1l0.9-6.2c2.1,0.3,4.2,0.6,6.3,0.8L161.2,421.1z"/>
			<path fill="#313C51" d="M2767.5,1088.9l14.9-28.7c6-0.6,11.9-1.4,17.6-2.2v-31.6l0.7-1.4l-0.7-0.4v-5.3v-54.4V838.3
				c-27.9,9.5-49.7,33.7-57.8,64.3c-8.3-4.5-17.4-7.9-27.2-9.8V0h-132.3v897.8c-18,7.1-30.8,25.8-30.8,47.8c0,1.6,0.1,3.2,0.2,4.8
				c-2.6-0.5-5.2-0.8-7.9-0.8c-24,0-43.4,21.1-43.4,47c0,26,19.4,47,43.4,47c9.6,0,18.6-3.4,25.8-9.2c3.7,2.2,8,4.4,12.8,6.4v399.3
				l-18.2-14.5l-13.5-52.5l-24.5-18.7l-13.4,17.5l18.5,14.1l13.4,52.2l37.7,30.1v908.3H2715v-794.7l43.9-65.3l-18.3-12.3l-25.6,38.1
				v-348.2L2767.5,1088.9z M2724.9,1063.1c6.3,0,12.5-0.1,18.7-0.3l2.8,19.3l-31.3,62.9V1063
				C2718.3,1063,2721.6,1063.1,2724.9,1063.1z"/>
			<path fill="#313C51" d="M2145.3,598c-4.3,0-8.4,0.4-12.5,1.2c0.2-2.5,0.3-5,0.3-7.5c0-44.3-33.2-80.3-74.1-80.3
				c-23.2,0-43.9,11.5-57.5,29.6c-17.3-15.1-38.8-26.1-62.7-31.6V0h-132.3v470.3c-25.4-33.6-64-55.1-107.2-55.1
				c-65.3,0-120,48.9-134.6,114.7c-27-4.3-61.5,0.3-96.6,14.6c-45.2,18.4-79.9,48.3-94.1,77.6c-43.7,5.1-77.3,36.1-77.3,73.6
				c0,41,40.3,74.3,90.1,74.3c22.6,0,43.2-6.9,59-18.2c25,15.7,60.4,25.5,99.7,25.5c42.1,0,79.8-11.3,105-29.1
				c39.3,13.9,93.8,23.9,155.9,27.5v664.3l-18.2-14.5l-13.5-52.5l-24.5-18.7l-13.4,17.5l18.5,14.1l13.4,52.2l37.7,30.1v908.3h132.3
				V1194.3l52.5-105.4l33.2-64l-19.5-10.1l-17.5,33.6l-3.1-21.6l-21.8,3.1l7.5,52.1l-31.3,62.9v-371c72.6-6.5,132.4-21.8,165.8-41.8
				c11.4,9.1,25.5,14.5,40.7,14.5c37.9,0,68.6-33.3,68.6-74.3C2213.9,631.2,2183.2,598,2145.3,598z"/>
		</g>
	</g>
	<rect y="2363" fill="#313C51" width="2800" height="437"/>
</g>
<g id="OBJECTS">
	<g>
		<path fill="#313C51" d="M2722.3,587.4c-10.1-20.9-34.8-42.2-67-55.3c-25-10.2-49.5-13.4-68.8-10.3c-10.4-46.9-49.4-81.7-95.8-81.7
			c-10.3,0-20.3,1.7-29.7,4.9V0h-126.4v504.7c-22.8,2.1-43.4,11.1-59.1,24.8c-9.7-12.8-24.4-21-40.9-21c-29.2,0-52.8,25.6-52.8,57.2
			c0,1.8,0.1,3.6,0.2,5.4c-2.9-0.6-5.8-0.9-8.9-0.9c-27,0-48.9,23.7-48.9,52.9c0,29.2,21.9,52.9,48.9,52.9c10.9,0,20.9-3.8,29-10.3
			c25.9,15.5,74.3,27.1,132.5,30.9v938.9l-1.7-1.3l-27.3-106.1l-21.3,5.5l6.8,26.6l-7.2-5.5l-13.4,17.5l29.4,22.4l9.1,35.4l3.4,13.2
			l0,0l0.9,3.6l21.2,16.9v713H2461V986.1l21.2-16.9l13.4-52.2l18.5-14.1l-13.4-17.5l-24.5,18.7l-13.5,52.5l-1.7,1.3V692.1
			c24.9-3.6,46.8-8.7,64.4-14.9c17.9,12.7,44.8,20.7,74.8,20.7c28,0,53.2-7,71-18.2c11.3,8.1,25.9,13,42,13
			c35.4,0,64.1-23.7,64.1-52.9C2777.3,613.1,2753.4,591,2722.3,587.4z"/>
		<path fill="#313C51" d="M1623,983.1c-3.4,0-6.8,0.2-10.1,0.5V722.7l54.7-91.7l-18.9-11.3l-35.8,60V0h-179.7v949.2
			c-0.7,1.4-1.3,2.8-1.9,4.3c-13.1-5-26-8-37.9-9c-13.9-35.4-46.3-60.3-84.1-60.3c-40.5,0-74.9,28.6-86.8,68.3
			c-6.2-3.1-13.1-4.8-20.4-4.8c-27,0-48.9,23.7-48.9,53c0,1.7,0.1,3.3,0.2,5c-2.7-0.5-5.4-0.8-8.2-0.8c-25,0-45.3,21.9-45.3,49
			s20.3,49,45.3,49c10.1,0,19.3-3.6,26.9-9.6c29.5,17.7,90.7,29.9,161.5,29.9c19.4,0,38-0.9,55.5-2.6l3.6,6.9l40.6,81.4v1167.9
			h179.7V1117.7c3.3,0.3,6.7,0.5,10.1,0.5c45.2,0,81.9-30.3,81.9-67.6C1704.9,1013.3,1668.2,983.1,1623,983.1z M1413.8,1120.5
			l0.4-3.1c6.5-1,12.9-2.1,18.9-3.3v45.3L1413.8,1120.5z"/>
	</g>
	<g>
		<rect x="1226.4" y="2281.9" fill="#313C51" width="1328.2" height="94.7"/>
		<rect x="1285.1" y="2034.1" fill="#313C51" width="1210.9" height="264"/>
		<rect x="1285.1" y="1618.5" fill="#444E66" width="562.3" height="679.6"/>
		<rect x="1331.8" y="1783.1" fill="#313C51" width="80.5" height="148.3"/>
		<g>
			<rect x="1354.4" y="1783.1" fill="#FFCC4E" width="138.5" height="148.3"/>
		</g>
		<rect x="1331.8" y="2025.9" fill="#313C51" width="80.5" height="272.2"/>
		<rect x="1536.6" y="2025.9" fill="#313C51" width="143.3" height="177.1"/>
		<g>
			<rect x="1354.4" y="2025.9" fill="#FFCC4E" width="138.5" height="272.2"/>
		</g>
		<g>
			<rect x="1559.2" y="2025.9" fill="#FFCC4E" width="241.5" height="177.1"/>
		</g>
		<g>
			<polygon fill="#313C51" points="1760.8,2109.2 1226.4,1574.9 1226.4,1532.8 2554.7,2079.4 2554.7,2109.2 			"/>
			<polygon fill="#444E66" points="2008,1532.8 1226.4,1532.8 1773.1,2079.4 2554.7,2079.4 			"/>
		</g>
	</g>
	<g>
		<path fill="#313C51" d="M2160.9,413.3c33.1,0,63.4-7,87.1-18.5c20.2,11.7,44.7,18.5,71.3,18.5c68.6,0,124.2-45.9,124.2-102.5
			c0-56.6-55.6-102.5-124.2-102.5c-5.9,0-11.8,0.4-17.5,1c0-0.3,0-0.7,0-1c0-71.4-63.1-129.2-141-129.2c-21.1,0-41.2,4.3-59.1,11.9
			V0h-126.4v150.2c-1.4-0.1-2.7-0.3-4.1-0.4c-21.1-53.7-70.2-91.4-127.5-91.4c-61.5,0-113.6,43.4-131.7,103.5
			c-9.4-4.7-19.9-7.3-30.9-7.3c-40.9,0-74.1,36-74.1,80.3c0,2.5,0.1,5,0.3,7.5c-4-0.8-8.2-1.2-12.5-1.2c-37.9,0-68.6,33.3-68.6,74.3
			c0,41,30.7,74.3,68.6,74.3c15.2,0,29.3-5.4,40.7-14.5c44.8,26.8,137.6,45.3,244.8,45.3c3.7,0,7.3,0,11-0.1l43.6,33l40.3,59.9v599
			c-1.5-0.1-3-0.1-4.5-0.1c-40.5,0-74.9,28.6-86.8,68.3c-6.2-3.1-13.1-4.8-20.4-4.8c-27,0-48.9,23.7-48.9,53c0,1.7,0.1,3.3,0.2,5
			c-2.7-0.5-5.4-0.8-8.2-0.8c-25,0-45.3,21.9-45.3,49s20.3,49,45.3,49c10.1,0,19.3-3.6,26.9-9.6c26.8,16,79.5,27.5,141.8,29.5
			v1025.7h126.4v-947.4l41.4-33.1l13.2-51.6c7.5,1.2,15.4,1.9,23.6,1.9c21.8,0,41.8-4.6,57.5-12.2c13.3,7.7,29.5,12.2,47,12.2
			c45.2,0,81.9-30.3,81.9-67.6c0-37.3-36.7-67.6-81.9-67.6c-3.9,0-7.7,0.2-11.5,0.7c0-0.2,0-0.5,0-0.7c0-47.1-41.6-85.2-93-85.2
			c-32.8,0-61.7,15.6-78.2,39.2V405.3C2119.6,410.4,2139.7,413.3,2160.9,413.3z M1928.3,419.3l0.2,1.7l-2.2-1.6
			C1927.1,419.4,1927.7,419.4,1928.3,419.3z M1953.7,441.8l-3.3-23.9c8.5-0.7,16.8-1.5,25-2.4V474L1953.7,441.8z M2123.6,1383.5
			l-21.9,17.5v-60.3c8-1.8,15.5-3.7,22.4-5.8c3.4,1.6,7.1,3.1,10.9,4.3L2123.6,1383.5z"/>
		<path fill="#313C51" d="M554.6,1031.5c-2.7,0-5.3,0.3-7.9,0.8c0.1-1.6,0.2-3.2,0.2-4.8c0-28.1-21-50.8-46.9-50.8
			c-14.7,0-27.8,7.3-36.4,18.7c-16-13.9-37.6-22.4-61.4-22.4c-16.7,0-32.3,4.2-45.7,11.5c-3.2-12.1-8.5-23.1-15.6-32.7V610.1
			l1.3,0.8l41.4-69.4l-18.9-11.3L341,570.2V0H223.6v365.6l-12.4-11.2l-12-52.5l-21.8-18.8L163,299.8l16.3,14.1l11.9,52.2l32.3,29.1
			V932c-17.9,13.1-31.1,33.1-36.3,56.5c-17.1-2.7-38.9,0.2-61.1,9.2c-28.6,11.6-50.6,30.6-59.5,49.1c-27.7,3.2-48.9,22.8-48.9,46.6
			c0,26,25.5,47,57,47c14.3,0,27.3-4.4,37.4-11.5c15.8,10,38.3,16.2,63.1,16.2c17.9,0,34.6-3.2,48.4-8.8v368l-12.4-11.2l-12-52.5
			l-21.8-18.8l-14.3,16.7l16.3,14.1l11.9,52.2l32.3,29.1v842.7H341v-627.8l1.3,0.8l41.4-69.4l-18.9-11.3l-23.8,39.9V1264l2,0.9
			l38.8-88.2l24.1-32.5c54-3,99.2-13.5,123-27.8c7.2,5.8,16.1,9.2,25.8,9.2c24,0,43.4-21.1,43.4-47
			C598,1052.5,578.6,1031.5,554.6,1031.5z M341,1214.6v-70.5c5.5,0.3,11.1,0.6,16.7,0.7l3.1,24.7L341,1214.6z"/>
		<path fill="#313C51" d="M1374,370.8c-14.1-29.3-48.8-59.2-94.1-77.6c-35.1-14.3-69.6-18.8-96.6-14.6
			c-14.6-65.8-69.3-114.7-134.6-114.7c-43.2,0-81.8,21.5-107.2,55.1V0H809.3v257.9c-23.9,5.5-45.4,16.5-62.7,31.6
			c-13.6-18-34.3-29.6-57.5-29.6c-40.9,0-74.1,36-74.1,80.3c0,2.5,0.1,5,0.3,7.5c-4-0.8-8.2-1.2-12.5-1.2
			c-37.9,0-68.6,33.3-68.6,74.3c0,41,30.7,74.3,68.6,74.3c15.2,0,29.3-5.4,40.7-14.5c33.3,20,93.2,35.3,165.8,41.8V703
			c-9.7,1.9-18.9,5.2-27.2,9.8c-10.5-39.6-44.2-68.6-84.2-68.6c-41.3,0-75.9,31-85.2,72.6c-17.1-2.7-38.9,0.2-61.1,9.2
			c-28.6,11.6-50.6,30.6-59.5,49.1c-27.7,3.2-48.9,22.8-48.9,46.6c0,26,25.5,47,57,47c14.3,0,27.3-4.4,37.4-11.5
			c15.8,10,38.3,16.2,63.1,16.2c26.7,0,50.5-7.1,66.5-18.4c19.7,7,45.4,12.4,74.8,15.5l14.9,28.7l52.5,105.4v445.3l-25.6-38.1
			l-18.3,12.3l43.9,65.3v887.4h132.3v-484.7l31-132.1l56.6-38.7l-12.4-18.2l-63.7,43.5l-11.5,49v-516.9l37.7-30.1l13.4-52.2
			l18.5-14.1l-13.4-17.5l-24.5,18.7l-13.5,52.5l-18.2,14.5V851.1c4.8-2,9-4.2,12.8-6.4c7.2,5.8,16.1,9.2,25.8,9.2
			c24,0,43.4-21.1,43.4-47c0-26-19.4-47-43.4-47c-2.7,0-5.3,0.3-7.9,0.8c0.1-1.6,0.2-3.2,0.2-4.8c0-22-12.9-40.6-30.8-47.8V524.4
			c62.1-3.7,116.6-13.6,155.9-27.5c25.2,17.8,62.9,29.1,105,29.1c39.3,0,74.7-9.8,99.7-25.5c15.8,11.3,36.5,18.2,59,18.2
			c49.7,0,90.1-33.3,90.1-74.3C1451.3,406.9,1417.7,375.9,1374,370.8z M809.3,955.1L778,892.3l2.8-19.3c6.1,0.2,12.4,0.3,18.7,0.3
			c3.3,0,6.6,0,9.9-0.1V955.1z"/>
	</g>
</g>
</svg>
