<svg id="Layer_5" enable-background="new 0 0 64 64" height="512" viewBox="0 0 64 64" width="512" xmlns="http://www.w3.org/2000/svg"><g><g><g><path d="m60 56h-56c-1.105 0-2-.895-2-2v-34h60v34c0 1.105-.895 2-2 2z" fill="#e6e9ed"/></g><g><path d="m18 44h10v12h-10z" fill="#ff826e"/></g><g><path d="m42 36v20h-10v-20h5z" fill="#ff826e"/></g><g><path d="m46 26h10v30h-10z" fill="#ff826e"/></g><g><path d="m62 10v10h-50-10v-10c0-1.1.9-2 2-2h56c1.1 0 2 .9 2 2z" fill="#b4dd7f"/></g><g><circle cx="8" cy="14" fill="#e6e9ed" r="2"/></g><g><circle cx="16" cy="14" fill="#e6e9ed" r="2"/></g><g><circle cx="24" cy="14" fill="#e6e9ed" r="2"/></g></g><g><path d="m8 17c1.654 0 3-1.346 3-3s-1.346-3-3-3-3 1.346-3 3 1.346 3 3 3zm0-4c.552 0 1 .449 1 1s-.448 1-1 1-1-.449-1-1 .448-1 1-1z"/><path d="m16 17c1.654 0 3-1.346 3-3s-1.346-3-3-3-3 1.346-3 3 1.346 3 3 3zm0-4c.552 0 1 .449 1 1s-.448 1-1 1-1-.449-1-1 .448-1 1-1z"/><path d="m24 17c1.654 0 3-1.346 3-3s-1.346-3-3-3-3 1.346-3 3 1.346 3 3 3zm0-4c.552 0 1 .449 1 1s-.448 1-1 1-1-.449-1-1 .448-1 1-1z"/><path d="m60 7h-56c-1.654 0-3 1.346-3 3v44c0 1.654 1.346 3 3 3h56c1.654 0 3-1.346 3-3v-44c0-1.654-1.346-3-3-3zm-56 2h56c.552 0 1 .449 1 1v9h-58v-9c0-.551.448-1 1-1zm-1 45v-33h8v2h-4v2h4v2h-6v2h6v2h-4v2h4v2h-6v2h6v2h-4v2h4v2h-6v2h6v2h-4v2h4v2h-6v2h6v2h-7c-.552 0-1-.449-1-1zm24 1h-8v-10h8zm14 0h-8v-18h8zm14 0h-8v-28h8zm5 0h-3v-30h-12v30h-2v-20h-12v20h-2v-12h-12v12h-4v-34h48v33c0 .551-.448 1-1 1z"/><path d="m15 25v2h16.485l4.702 6.581 1.626-1.162-5.298-7.419z"/></g></g></svg>