<svg height="512" viewBox="0 0 60 60" width="512" xmlns="http://www.w3.org/2000/svg"><g id="Page-1" fill="none" fill-rule="evenodd"><g id="055---Ear-Sound" fill-rule="nonzero" transform="translate(-1 -1)"><path id="Shape" d="m20 44v6c0 5.5228475 4.4771525 10 10 10s10-4.4771525 10-10c.0392182-4.1435657 2.7004864-7.8068743 6.629-9.125 9.6001523-3.3726155 15.1377962-13.4156487 12.8662819-23.3342011-2.2715143-9.91855246-11.6280249-16.55057529-21.7391194-15.40898567-10.1110946 1.14158963-17.7533416 9.69285127-17.7561625 19.86818677z" fill="#ffe0b2"/><path id="Shape" d="m59.972 20.923c-.6082902-10.1747214-8.725118-18.28940186-18.9-18.895-.8752448-.04353159-1.7523813-.03083883-2.626.038 9.4495811.68467235 17.1214239 7.90723533 18.3744138 17.2983681 1.2529899 9.3911328-4.2568899 18.3724363-13.1964138 21.5106319-3.9263512 1.320098-6.5852098 4.9828522-6.624 9.125-.0028873 4.9402064-3.6152408 9.1369112-8.5 9.875 2.8835331.4624917 5.8244372-.3680497 8.0400596-2.2705951 2.2156225-1.9025453 3.4812042-4.6840951 3.4599404-7.6044049.0395207-4.1434658 2.7006749-7.8066174 6.629-9.125 8.385763-2.9485219 13.8209418-11.0758312 13.343-19.952z" fill="#dfc49c"/><path id="Shape" d="m33.01 40.09c1.57-2.35 1.02-4.86-.36-6.95-1.03-1.58-2.52-2.75-3.58-4.3-.998229-1.4535335-1.6514887-3.1157544-1.91-4.86-.5867963-3.7494875.4975473-7.567911 2.967383-10.449386s6.0774958-4.53705577 9.872617-4.530614c13.67 0 22.41 21.09-4.55 32.5" fill="#dfc49c"/><path id="Shape" d="m46 25.422c-.5522847 0-1-.4477153-1-1 0-3.1-1.1-5.027-3.361-5.9-.5152817-.1993748-.7713748-.7787183-.572-1.294s.7787183-.7713748 1.294-.572c2.116.817 4.639 2.829 4.639 7.766 0 .5522847-.4477153 1-1 1z" fill="#825a2c"/><path id="Shape" d="m35 18.422c-.501298.0003766-.925411-.3704729-.9919129-.8673404-.0665018-.4968676.24516-.9661947.7289129-1.0976596.7097096-.178151 1.431709-.3031638 2.16-.374.5495233-.0568853 1.0411146.3424767 1.098.892.0568853.5495233-.3424767 1.0411147-.892 1.098-.6207147.0605144-1.2362925.16545-1.842.314-.085131.0228513-.1728562.0346152-.261.035z" fill="#825a2c"/><g fill="#e91e63"><path id="Shape" d="m10.834 54.32c-.4133341-.0002087-.7839464-.2546936-.93259186-.6403744-.14864549-.3856808-.04468882-.8230697.26159186-1.1006256 4.9846757-4.4173004 7.8377433-10.7587047 7.837-17.419.0011012-6.6600848-2.8520547-13.0013212-7.837-17.418-.37726675-.3760576-.39352596-.9818394-.0369746-1.3775927.3565513-.3957533.9607421-.4425448 1.3739746-.1064073 5.3726778 4.8196632 8.459684 11.6844384 8.5 18.902-.041004 7.2168365-3.1279396 14.0807286-8.5 18.9-.182375.1657766-.4195454.2583657-.666.26z"/><path id="Shape" d="m6.417 50.08c-.41888273.0004514-.79365729-.2602154-.93897413-.6530843s-.03037717-.8346743.28797413-1.1069157c3.90192115-3.2643943 6.1797623-8.0729265 6.234-13.16-.0550436-5.0868877-2.33273315-9.8950998-6.234-13.16-.41973638-.3589851-.46898504-.9902636-.10999996-1.41.35898507-.4197364.99026355-.4689851 1.40999996-.11 4.3452034 3.6451666 6.8785778 9.0085839 6.934 14.68-.0551734 5.6712542-2.5881696 11.0346444-6.933 14.68-.18114184.1549056-.41165548.2400183-.65.24z"/><path id="Shape" d="m2 45.84c-.40801124.0016178-.77608686-.2448076-.93004341-.622661-.15395656-.3778534-.06291417-.8113467.23004341-1.095339 2.38809841-2.3683736 3.72175569-5.5987078 3.7-8.962.02099064-3.3625558-1.31259037-6.5919844-3.7-8.96-.39681659-.3865993-.40509932-1.0216834-.0185-1.4185s1.02168341-.4050993 1.4185-.0185c2.77256336 2.7468075 4.32242857 6.4942374 4.3 10.397.02267088 3.9036905-1.52716957 7.6521418-4.3 10.4-.18786656.1810851-.43907239.2815675-.7.28z"/></g><path id="Shape" d="m21 50c0-.5522847-.4477153-1-1-1s-1 .4477153-1 1c0 6.0751322 4.9248678 11 11 11s11-4.9248678 11-11c.0533449-3.7143337 2.4409981-6.9921488 5.96-8.182 8.7773489-3.1307862 14.4688823-11.6402602 14.011-20.948-.6577643-10.6739467-9.1680201-19.18377363-19.842-19.841-5.757417-.30997801-11.3890294 1.76088836-15.5740639 5.72692199-4.1850345 3.96603361-6.5553124 9.47832251-6.5549361 15.24407801 0 .5522847.4477153 1 1 1s1-.4477153 1-1c-.0001835-5.2171497 2.1449249-10.2048386 5.9321448-13.79309949 3.78722-3.58826085 8.8833029-5.46135201 14.0928552-5.17990051 9.6561577.59376588 17.3547721 8.2928092 17.948 17.949.4154541 8.4212386-4.7323532 16.1212178-12.673 18.956-4.3206369 1.4704429-7.2454816 5.5043246-7.3 10.068 0 4.9705627-4.0294373 9-9 9s-9-4.0294373-9-9z" fill="#000"/><path id="Shape" d="m40 10c6.624447.0071648 11.9928352 5.375553 12 12 0 .5522847.4477153 1 1 1s1-.4477153 1-1c-.0082673-7.7285595-6.2714405-13.99173268-14-14-4.085967-.00639099-7.9700403 1.77585895-10.629805 4.8776035-2.6597647 3.1017445-3.8287333 7.2122132-3.199195 11.2493965.2790792 1.8931212.9885987 3.697025 2.074 5.273.5527216.7717819 1.1627799 1.5008434 1.825 2.181.6396524.6494408 1.2230762 1.351958 1.744 2.1.5209185.759381.8850308 1.6150959 1.071 2.517.0872264.4739573.5000836.8182852.982.819.0610423.000589.1219968-.0047696.182-.016.5419287-.1011543.899771-.6218149.8-1.164-.2331246-1.1635342-.6969111-2.2685973-1.364-3.25-.5814513-.84424-1.2345311-1.6368353-1.952-2.369-.5912999-.6070496-1.1371082-1.2568056-1.633-1.944-.9144587-1.3270668-1.5118222-2.8464776-1.746-4.441-.5435617-3.460865.4556482-6.986193 2.7343554-9.6471212 2.2787072-2.6609283 5.608357-4.19056553 9.1116446-4.1858788z" fill="#000"/><path id="Shape" d="m25.052 40.313c.1731886.5238394.7379135.8084393 1.262.636.055-.018 5.477-1.745 8.979 1.758.3923789.3789722 1.0160848.3735524 1.4018186-.0121814s.3911536-1.0094397.0121814-1.4018186c-4.387-4.387-10.754-2.331-11.023-2.241-.5217176.1748702-.8041405.7383754-.632 1.261z" fill="#000"/></g></g></svg>